solid OpenSCAD_Model
  facet normal 0 0 -1
    outer loop
      vertex 15 -28 0
      vertex 14.5637 -29.247 0
      vertex 13 -30 0
    endloop
  endfacet
  facet normal 0 0 -1
    outer loop
      vertex 15 28 0
      vertex 13 30 0
      vertex 14.247 29.5637 0
    endloop
  endfacet
  facet normal 0 -0 -1
    outer loop
      vertex -13 30 0
      vertex 13 30 0
      vertex -15 28 0
    endloop
  endfacet
  facet normal 0 -0 -1
    outer loop
      vertex -14.5637 29.247 0
      vertex -13 30 0
      vertex -15 28 0
    endloop
  endfacet
  facet normal 0 0 -1
    outer loop
      vertex -15 28 0
      vertex 13 30 0
      vertex 15 28 0
    endloop
  endfacet
  facet normal 0 0 -1
    outer loop
      vertex 15 -28 0
      vertex -15 28 0
      vertex 15 28 0
    endloop
  endfacet
  facet normal 0 0 -1
    outer loop
      vertex 15 -28 0
      vertex -15 -28 0
      vertex -15 28 0
    endloop
  endfacet
  facet normal -0 0 -1
    outer loop
      vertex 15 -28 0
      vertex 13 -30 0
      vertex -15 -28 0
    endloop
  endfacet
  facet normal 0 0 -1
    outer loop
      vertex -15 -28 0
      vertex -13 -30 0
      vertex -14.247 -29.5637 0
    endloop
  endfacet
  facet normal 0 0 -1
    outer loop
      vertex -15 -28 0
      vertex 13 -30 0
      vertex -13 -30 0
    endloop
  endfacet
  facet normal 0.943894 -0.330249 0
    outer loop
      vertex 15 -28 0
      vertex 14.5637 -29.247 50
      vertex 14.5637 -29.247 0
    endloop
  endfacet
  facet normal 0.943894 -0.330249 0
    outer loop
      vertex 15 -28 0
      vertex 15 -28 50
      vertex 14.5637 -29.247 50
    endloop
  endfacet
  facet normal 1 0 0
    outer loop
      vertex 15 28 0
      vertex 15 -28 50
      vertex 15 -28 0
    endloop
  endfacet
  facet normal 1 0 -0
    outer loop
      vertex 15 28 0
      vertex 15 28 50
      vertex 15 -28 50
    endloop
  endfacet
  facet normal 0.900977 0.433866 0
    outer loop
      vertex 14.247 29.5637 0
      vertex 15 28 50
      vertex 15 28 0
    endloop
  endfacet
  facet normal 0.900977 0.433866 -0
    outer loop
      vertex 14.247 29.5637 0
      vertex 14.247 29.5637 50
      vertex 15 28 50
    endloop
  endfacet
  facet normal 0.330249 0.943894 0
    outer loop
      vertex 13 30 0
      vertex 14.247 29.5637 50
      vertex 14.247 29.5637 0
    endloop
  endfacet
  facet normal 0.330249 0.943894 -0
    outer loop
      vertex 13 30 0
      vertex 13 30 50
      vertex 14.247 29.5637 50
    endloop
  endfacet
  facet normal 0 1 0
    outer loop
      vertex -13 30 0
      vertex 13 30 50
      vertex 13 30 0
    endloop
  endfacet
  facet normal 0 1 0
    outer loop
      vertex -13 30 0
      vertex -13 30 50
      vertex 13 30 50
    endloop
  endfacet
  facet normal -0.433866 0.900977 0
    outer loop
      vertex -14.5637 29.247 0
      vertex -13 30 50
      vertex -13 30 0
    endloop
  endfacet
  facet normal -0.433866 0.900977 0
    outer loop
      vertex -14.5637 29.247 0
      vertex -14.5637 29.247 50
      vertex -13 30 50
    endloop
  endfacet
  facet normal -0.943894 0.330249 0
    outer loop
      vertex -15 28 0
      vertex -14.5637 29.247 50
      vertex -14.5637 29.247 0
    endloop
  endfacet
  facet normal -0.943894 0.330249 0
    outer loop
      vertex -15 28 0
      vertex -15 28 50
      vertex -14.5637 29.247 50
    endloop
  endfacet
  facet normal -1 0 0
    outer loop
      vertex -15 -28 0
      vertex -15 28 50
      vertex -15 28 0
    endloop
  endfacet
  facet normal -1 0 0
    outer loop
      vertex -15 -28 0
      vertex -15 -28 50
      vertex -15 28 50
    endloop
  endfacet
  facet normal -0.900977 -0.433866 0
    outer loop
      vertex -14.247 -29.5637 0
      vertex -15 -28 50
      vertex -15 -28 0
    endloop
  endfacet
  facet normal -0.900977 -0.433866 0
    outer loop
      vertex -14.247 -29.5637 0
      vertex -14.247 -29.5637 50
      vertex -15 -28 50
    endloop
  endfacet
  facet normal -0.330249 -0.943894 0
    outer loop
      vertex -13 -30 0
      vertex -14.247 -29.5637 50
      vertex -14.247 -29.5637 0
    endloop
  endfacet
  facet normal -0.330249 -0.943894 0
    outer loop
      vertex -13 -30 0
      vertex -13 -30 50
      vertex -14.247 -29.5637 50
    endloop
  endfacet
  facet normal 0 -1 0
    outer loop
      vertex 13 -30 0
      vertex -13 -30 50
      vertex -13 -30 0
    endloop
  endfacet
  facet normal 0 -1 0
    outer loop
      vertex 13 -30 0
      vertex 13 -30 50
      vertex -13 -30 50
    endloop
  endfacet
  facet normal 0.433866 -0.900977 0
    outer loop
      vertex 14.5637 -29.247 0
      vertex 13 -30 50
      vertex 13 -30 0
    endloop
  endfacet
  facet normal 0.433866 -0.900977 0
    outer loop
      vertex 14.5637 -29.247 0
      vertex 14.5637 -29.247 50
      vertex 13 -30 50
    endloop
  endfacet
  facet normal 0 0 1
    outer loop
      vertex 13 -30 50
      vertex 14.5637 -29.247 50
      vertex 15 -28 50
    endloop
  endfacet
  facet normal 0 0 1
    outer loop
      vertex 14.247 29.5637 50
      vertex 13 30 50
      vertex 15 28 50
    endloop
  endfacet
  facet normal 0 0 1
    outer loop
      vertex -15 28 50
      vertex 13 30 50
      vertex -13 30 50
    endloop
  endfacet
  facet normal 0 0 1
    outer loop
      vertex -15 28 50
      vertex -13 30 50
      vertex -14.5637 29.247 50
    endloop
  endfacet
  facet normal 0 0 1
    outer loop
      vertex 15 28 50
      vertex 13 30 50
      vertex -15 28 50
    endloop
  endfacet
  facet normal 0 0 1
    outer loop
      vertex 15 28 50
      vertex -15 28 50
      vertex 15 -28 50
    endloop
  endfacet
  facet normal 0 0 1
    outer loop
      vertex -15 28 50
      vertex -15 -28 50
      vertex 15 -28 50
    endloop
  endfacet
  facet normal -0 0 1
    outer loop
      vertex -15 -28 50
      vertex 13 -30 50
      vertex 15 -28 50
    endloop
  endfacet
  facet normal -0 -0 1
    outer loop
      vertex -14.247 -29.5637 50
      vertex -13 -30 50
      vertex -15 -28 50
    endloop
  endfacet
  facet normal 0 -0 1
    outer loop
      vertex -13 -30 50
      vertex 13 -30 50
      vertex -15 -28 50
    endloop
  endfacet
endsolid OpenSCAD_Model
