solid OpenSCAD_Model
  facet normal 1 -0 0
    outer loop
      vertex 1 -2 3
      vertex 1 2 0
      vertex 1 2 3
    endloop
  endfacet
  facet normal 1 0 0
    outer loop
      vertex 1 2 0
      vertex 1 -2 3
      vertex 1 -2 0
    endloop
  endfacet
  facet normal -0 0 1
    outer loop
      vertex 0 2 3
      vertex 1 -2 3
      vertex 1 2 3
    endloop
  endfacet
  facet normal 0 0 1
    outer loop
      vertex 1 -2 3
      vertex 0 2 3
      vertex 0 -2 3
    endloop
  endfacet
  facet normal 0 0 -1
    outer loop
      vertex 0 -2 0
      vertex 1 2 0
      vertex 1 -2 0
    endloop
  endfacet
  facet normal -0 0 -1
    outer loop
      vertex 1 2 0
      vertex 0 -2 0
      vertex 0 2 0
    endloop
  endfacet
  facet normal -1 0 0
    outer loop
      vertex 0 -2 0
      vertex 0 2 3
      vertex 0 2 0
    endloop
  endfacet
  facet normal -1 -0 0
    outer loop
      vertex 0 2 3
      vertex 0 -2 0
      vertex 0 -2 3
    endloop
  endfacet
  facet normal 0 1 -0
    outer loop
      vertex 1 2 0
      vertex 0 2 3
      vertex 1 2 3
    endloop
  endfacet
  facet normal 0 1 0
    outer loop
      vertex 0 2 3
      vertex 1 2 0
      vertex 0 2 0
    endloop
  endfacet
  facet normal 0 -1 0
    outer loop
      vertex 0 -2 0
      vertex 1 -2 3
      vertex 0 -2 3
    endloop
  endfacet
  facet normal 0 -1 -0
    outer loop
      vertex 1 -2 3
      vertex 0 -2 0
      vertex 1 -2 0
    endloop
  endfacet
endsolid OpenSCAD_Model
