solid OpenSCAD_Model
  facet normal -0.433858 -0.900981 0
    outer loop
      vertex -0.945713 -16.2684 -2
      vertex -2.64983 -15.4478 2
      vertex -2.64983 -15.4478 -2
    endloop
  endfacet
  facet normal -0.781835 -0.623485 -0
    outer loop
      vertex -3.82912 -13.969 2
      vertex -3.82912 -13.969 -2
      vertex -2.64983 -15.4478 2
    endloop
  endfacet
  facet normal 0 -1 0
    outer loop
      vertex -0.945713 -16.2684 2
      vertex -0.945713 -16.2684 -2
      vertex 0.945713 -16.2684 2
    endloop
  endfacet
  facet normal -0.974928 -0.22252 0
    outer loop
      vertex -4.25 -12.125 -2
      vertex -3.82912 -13.969 -2
      vertex -4.25 -12.125 2
    endloop
  endfacet
  facet normal 0 0 1
    outer loop
      vertex 4.25 -12.125 2
      vertex -2.64983 -15.4478 2
      vertex 3.82912 -13.969 2
    endloop
  endfacet
  facet normal -0.974928 -0.22252 0
    outer loop
      vertex -4.25 -12.125 2
      vertex -3.82912 -13.969 -2
      vertex -3.82912 -13.969 2
    endloop
  endfacet
  facet normal 0 0 -1
    outer loop
      vertex -10.7 10.7 -4
      vertex 10.7 10.7 -4
      vertex -10.7 -10.7 -4
    endloop
  endfacet
  facet normal 0 0 -1
    outer loop
      vertex 0.945713 -16.2684 -2
      vertex 3.82912 -13.969 -2
      vertex 2.64983 -15.4478 -2
    endloop
  endfacet
  facet normal 1 0 0
    outer loop
      vertex 4.25 -10.7 -0.658823
      vertex 4.25 -12.125 2
      vertex 4.25 -12.125 -2
    endloop
  endfacet
  facet normal 0.974928 -0.22252 0
    outer loop
      vertex 3.82912 -13.969 2
      vertex 3.82912 -13.969 -2
      vertex 4.25 -12.125 2
    endloop
  endfacet
  facet normal 0 0 -1
    outer loop
      vertex -3.82912 -13.969 -2
      vertex 3.82912 -13.969 -2
      vertex -2.64983 -15.4478 -2
    endloop
  endfacet
  facet normal 0 0 -1
    outer loop
      vertex 13.969 3.82912 -2
      vertex 10.7 4.05489 -2
      vertex 12.125 4.25 -2
    endloop
  endfacet
  facet normal 0.974928 -0.22252 0
    outer loop
      vertex 4.25 -12.125 2
      vertex 3.82912 -13.969 -2
      vertex 4.25 -12.125 -2
    endloop
  endfacet
  facet normal -0.781835 -0.623485 -0
    outer loop
      vertex -2.64983 -15.4478 2
      vertex -3.82912 -13.969 -2
      vertex -2.64983 -15.4478 -2
    endloop
  endfacet
  facet normal 1 0 0
    outer loop
      vertex 10.7 10.7 4
      vertex 10.7 4.25 2
      vertex 10.7 4.25 -0.658823
    endloop
  endfacet
  facet normal 0 0 1
    outer loop
      vertex 4.25 -12.125 2
      vertex 1.67604 -10.7 2
      vertex -2.64983 -15.4478 2
    endloop
  endfacet
  facet normal 1 0 0
    outer loop
      vertex 10.7 -10.7 -4
      vertex 10.7 -4.25 -2
      vertex 10.7 -4.25 0.658823
    endloop
  endfacet
  facet normal 0.433858 -0.900981 0
    outer loop
      vertex 0.945713 -16.2684 -2
      vertex 2.64983 -15.4478 -2
      vertex 0.945713 -16.2684 2
    endloop
  endfacet
  facet normal 0 0 1
    outer loop
      vertex 2.64983 -15.4478 2
      vertex -2.64983 -15.4478 2
      vertex 0.945713 -16.2684 2
    endloop
  endfacet
  facet normal 0 0 -1
    outer loop
      vertex -4.25 -12.125 -2
      vertex 3.82912 -13.969 -2
      vertex -3.82912 -13.969 -2
    endloop
  endfacet
  facet normal 1 0 0
    outer loop
      vertex 10.7 -10.7 4
      vertex 10.7 -4.25 0.658823
      vertex 10.7 -4.25 1.58879
    endloop
  endfacet
  facet normal -1 0 0
    outer loop
      vertex -4.25 -10.7 -2
      vertex -4.25 -12.125 -2
      vertex -4.25 -10.7 -1.58879
    endloop
  endfacet
  facet normal -0 0 1
    outer loop
      vertex 1.67604 -10.7 2
      vertex 4.25 -12.125 2
      vertex 4.25 -10.7 2
    endloop
  endfacet
  facet normal 0 0 1
    outer loop
      vertex 3.82912 -13.969 2
      vertex -2.64983 -15.4478 2
      vertex 2.64983 -15.4478 2
    endloop
  endfacet
  facet normal -0 -0 1
    outer loop
      vertex -3.82912 -13.969 2
      vertex -2.64983 -15.4478 2
      vertex -4.25 -12.125 2
    endloop
  endfacet
  facet normal 0 0 1
    outer loop
      vertex -3.65306 -10.7 2
      vertex -4.25 -12.125 2
      vertex -2.64983 -15.4478 2
    endloop
  endfacet
  facet normal 0 0 -1
    outer loop
      vertex -0.945713 -16.2684 -2
      vertex 3.82912 -13.969 -2
      vertex 0.945713 -16.2684 -2
    endloop
  endfacet
  facet normal 0.433858 -0.900981 0
    outer loop
      vertex 0.945713 -16.2684 2
      vertex 2.64983 -15.4478 -2
      vertex 2.64983 -15.4478 2
    endloop
  endfacet
  facet normal -0 -0 -1
    outer loop
      vertex 4.25 -10.7 -2
      vertex 4.25 -12.125 -2
      vertex 4.05489 -10.7 -2
    endloop
  endfacet
  facet normal 0 -1 -0
    outer loop
      vertex 0.945713 -16.2684 2
      vertex -0.945713 -16.2684 -2
      vertex 0.945713 -16.2684 -2
    endloop
  endfacet
  facet normal -0.433858 -0.900981 -0
    outer loop
      vertex -0.945713 -16.2684 2
      vertex -2.64983 -15.4478 2
      vertex -0.945713 -16.2684 -2
    endloop
  endfacet
  facet normal 0 0 1
    outer loop
      vertex 0.945713 -16.2684 2
      vertex -2.64983 -15.4478 2
      vertex -0.945713 -16.2684 2
    endloop
  endfacet
  facet normal 0 0 -1
    outer loop
      vertex -4.25 -10.7 -2
      vertex -0.504762 -10.7 -2
      vertex -4.25 -12.125 -2
    endloop
  endfacet
  facet normal 0 0 -1
    outer loop
      vertex -2.64983 -15.4478 -2
      vertex 3.82912 -13.969 -2
      vertex -0.945713 -16.2684 -2
    endloop
  endfacet
  facet normal 0.781835 -0.623485 0
    outer loop
      vertex 2.64983 -15.4478 2
      vertex 3.82912 -13.969 -2
      vertex 3.82912 -13.969 2
    endloop
  endfacet
  facet normal 0.781835 -0.623485 0
    outer loop
      vertex 2.64983 -15.4478 -2
      vertex 3.82912 -13.969 -2
      vertex 2.64983 -15.4478 2
    endloop
  endfacet
  facet normal 0.433858 0.900981 0
    outer loop
      vertex 0.945713 16.2684 -2
      vertex 2.64983 15.4478 2
      vertex 2.64983 15.4478 -2
    endloop
  endfacet
  facet normal 0.781835 0.623485 0
    outer loop
      vertex 3.82912 13.969 2
      vertex 3.82912 13.969 -2
      vertex 2.64983 15.4478 2
    endloop
  endfacet
  facet normal 0 1 0
    outer loop
      vertex 0.945713 16.2684 2
      vertex 0.945713 16.2684 -2
      vertex -0.945713 16.2684 2
    endloop
  endfacet
  facet normal 0.974928 0.22252 -0
    outer loop
      vertex 4.25 12.125 -2
      vertex 3.82912 13.969 -2
      vertex 4.25 12.125 2
    endloop
  endfacet
  facet normal 0 0 1
    outer loop
      vertex -4.25 12.125 2
      vertex 2.64983 15.4478 2
      vertex -3.82912 13.969 2
    endloop
  endfacet
  facet normal 0.974928 0.22252 0
    outer loop
      vertex 4.25 12.125 2
      vertex 3.82912 13.969 -2
      vertex 3.82912 13.969 2
    endloop
  endfacet
  facet normal 1 0 0
    outer loop
      vertex 10.7 10.7 4
      vertex 10.7 4.25 -0.658823
      vertex 10.7 10.7 -4
    endloop
  endfacet
  facet normal 0 0 -1
    outer loop
      vertex -0.945713 16.2684 -2
      vertex -3.82912 13.969 -2
      vertex -2.64983 15.4478 -2
    endloop
  endfacet
  facet normal -1 0 0
    outer loop
      vertex -4.25 10.7 2
      vertex -4.25 12.125 2
      vertex -4.25 10.7 1.58879
    endloop
  endfacet
  facet normal -0.974928 0.22252 0
    outer loop
      vertex -3.82912 13.969 2
      vertex -3.82912 13.969 -2
      vertex -4.25 12.125 2
    endloop
  endfacet
  facet normal 0 0 -1
    outer loop
      vertex 3.82912 13.969 -2
      vertex -3.82912 13.969 -2
      vertex 2.64983 15.4478 -2
    endloop
  endfacet
  facet normal 1 0 0
    outer loop
      vertex 10.7 1.67604 2
      vertex 10.7 -10.7 4
      vertex 10.7 -3.65306 2
    endloop
  endfacet
  facet normal -0.974928 0.22252 0
    outer loop
      vertex -4.25 12.125 2
      vertex -3.82912 13.969 -2
      vertex -4.25 12.125 -2
    endloop
  endfacet
  facet normal 0.781835 0.623485 0
    outer loop
      vertex 2.64983 15.4478 2
      vertex 3.82912 13.969 -2
      vertex 2.64983 15.4478 -2
    endloop
  endfacet
  facet normal 0 1 0
    outer loop
      vertex 10.7 10.7 4
      vertex 3.65306 10.7 2
      vertex -1.67604 10.7 2
    endloop
  endfacet
  facet normal 0 1 0
    outer loop
      vertex 10.7 10.7 4
      vertex 4.25 10.7 2
      vertex 3.65306 10.7 2
    endloop
  endfacet
  facet normal 0 1 0
    outer loop
      vertex 10.7 10.7 4
      vertex 4.25 10.7 0.658823
      vertex 4.25 10.7 2
    endloop
  endfacet
  facet normal -0.433858 0.900981 0
    outer loop
      vertex -0.945713 16.2684 -2
      vertex -2.64983 15.4478 -2
      vertex -0.945713 16.2684 2
    endloop
  endfacet
  facet normal 0 0 1
    outer loop
      vertex -2.64983 15.4478 2
      vertex 2.64983 15.4478 2
      vertex -0.945713 16.2684 2
    endloop
  endfacet
  facet normal 0 0 -1
    outer loop
      vertex 4.25 12.125 -2
      vertex -3.82912 13.969 -2
      vertex 3.82912 13.969 -2
    endloop
  endfacet
  facet normal 0 1 0
    outer loop
      vertex -10.7 10.7 4
      vertex -1.67604 10.7 2
      vertex -4.25 10.7 2
    endloop
  endfacet
  facet normal 1 0 0
    outer loop
      vertex 4.25 10.7 -2
      vertex 4.25 12.125 -2
      vertex 4.25 10.7 -1.58879
    endloop
  endfacet
  facet normal 0 0 1
    outer loop
      vertex -1.67604 10.7 2
      vertex -4.25 12.125 2
      vertex -4.25 10.7 2
    endloop
  endfacet
  facet normal 0 0 1
    outer loop
      vertex -3.82912 13.969 2
      vertex 2.64983 15.4478 2
      vertex -2.64983 15.4478 2
    endloop
  endfacet
  facet normal 0 0 1
    outer loop
      vertex 3.82912 13.969 2
      vertex 2.64983 15.4478 2
      vertex 4.25 12.125 2
    endloop
  endfacet
  facet normal 0 -0 1
    outer loop
      vertex 3.65306 10.7 2
      vertex 4.25 12.125 2
      vertex 2.64983 15.4478 2
    endloop
  endfacet
  facet normal -0 0 -1
    outer loop
      vertex 0.945713 16.2684 -2
      vertex -3.82912 13.969 -2
      vertex -0.945713 16.2684 -2
    endloop
  endfacet
  facet normal -0.433858 0.900981 0
    outer loop
      vertex -0.945713 16.2684 2
      vertex -2.64983 15.4478 -2
      vertex -2.64983 15.4478 2
    endloop
  endfacet
  facet normal 0 0 -1
    outer loop
      vertex -4.05489 10.7 -2
      vertex -4.25 12.125 -2
      vertex -3.82912 13.969 -2
    endloop
  endfacet
  facet normal 0 1 0
    outer loop
      vertex -0.945713 16.2684 2
      vertex 0.945713 16.2684 -2
      vertex -0.945713 16.2684 -2
    endloop
  endfacet
  facet normal 0.433858 0.900981 0
    outer loop
      vertex 0.945713 16.2684 2
      vertex 2.64983 15.4478 2
      vertex 0.945713 16.2684 -2
    endloop
  endfacet
  facet normal -0 0 1
    outer loop
      vertex -0.945713 16.2684 2
      vertex 2.64983 15.4478 2
      vertex 0.945713 16.2684 2
    endloop
  endfacet
  facet normal 0 0 -1
    outer loop
      vertex 4.25 10.7 -2
      vertex 0.504762 10.7 -2
      vertex 4.25 12.125 -2
    endloop
  endfacet
  facet normal -0 0 -1
    outer loop
      vertex 2.64983 15.4478 -2
      vertex -3.82912 13.969 -2
      vertex 0.945713 16.2684 -2
    endloop
  endfacet
  facet normal -0.781835 0.623485 0
    outer loop
      vertex -2.64983 15.4478 2
      vertex -3.82912 13.969 -2
      vertex -3.82912 13.969 2
    endloop
  endfacet
  facet normal -0.781835 0.623485 0
    outer loop
      vertex -2.64983 15.4478 -2
      vertex -3.82912 13.969 -2
      vertex -2.64983 15.4478 2
    endloop
  endfacet
  facet normal -0.900981 0.433858 0
    outer loop
      vertex -16.2684 0.945713 -2
      vertex -15.4478 2.64983 2
      vertex -15.4478 2.64983 -2
    endloop
  endfacet
  facet normal -0.623485 0.781835 0
    outer loop
      vertex -13.969 3.82912 2
      vertex -13.969 3.82912 -2
      vertex -15.4478 2.64983 2
    endloop
  endfacet
  facet normal -1 -0 -0
    outer loop
      vertex -16.2684 0.945713 2
      vertex -16.2684 0.945713 -2
      vertex -16.2684 -0.945713 2
    endloop
  endfacet
  facet normal -0.22252 0.974928 0
    outer loop
      vertex -12.125 4.25 -2
      vertex -13.969 3.82912 -2
      vertex -12.125 4.25 2
    endloop
  endfacet
  facet normal 0 0 1
    outer loop
      vertex -12.125 -4.25 2
      vertex -15.4478 2.64983 2
      vertex -13.969 -3.82912 2
    endloop
  endfacet
  facet normal -0.22252 0.974928 0
    outer loop
      vertex -12.125 4.25 2
      vertex -13.969 3.82912 -2
      vertex -13.969 3.82912 2
    endloop
  endfacet
  facet normal -1 0 -0
    outer loop
      vertex -10.7 0.504762 -2
      vertex -10.7 10.7 -4
      vertex -10.7 -10.7 -4
    endloop
  endfacet
  facet normal 0 0 -1
    outer loop
      vertex -16.2684 -0.945713 -2
      vertex -13.969 -3.82912 -2
      vertex -15.4478 -2.64983 -2
    endloop
  endfacet
  facet normal -0 -1 -0
    outer loop
      vertex -10.7 -4.25 2
      vertex -12.125 -4.25 2
      vertex -10.7 -4.25 -0.658823
    endloop
  endfacet
  facet normal -0.22252 -0.974928 -0
    outer loop
      vertex -13.969 -3.82912 2
      vertex -13.969 -3.82912 -2
      vertex -12.125 -4.25 2
    endloop
  endfacet
  facet normal 0 -0 -1
    outer loop
      vertex -13.969 3.82912 -2
      vertex -13.969 -3.82912 -2
      vertex -15.4478 2.64983 -2
    endloop
  endfacet
  facet normal -1 0 0
    outer loop
      vertex -10.7 10.7 4
      vertex -10.7 4.25 0.658823
      vertex -10.7 4.25 1.58879
    endloop
  endfacet
  facet normal -0.22252 -0.974928 -0
    outer loop
      vertex -12.125 -4.25 2
      vertex -13.969 -3.82912 -2
      vertex -12.125 -4.25 -2
    endloop
  endfacet
  facet normal -0.623485 0.781835 0
    outer loop
      vertex -15.4478 2.64983 2
      vertex -13.969 3.82912 -2
      vertex -15.4478 2.64983 -2
    endloop
  endfacet
  facet normal -1 0 -0
    outer loop
      vertex -10.7 -4.25 -1.58879
      vertex -10.7 -4.25 -2
      vertex -10.7 -10.7 -4
    endloop
  endfacet
  facet normal -1 0 -0
    outer loop
      vertex -10.7 -4.25 -2
      vertex -10.7 -4.05489 -2
      vertex -10.7 -10.7 -4
    endloop
  endfacet
  facet normal -1 0 0
    outer loop
      vertex -10.7 10.7 -4
      vertex -10.7 4.25 0.658823
      vertex -10.7 10.7 4
    endloop
  endfacet
  facet normal -0.900981 -0.433858 0
    outer loop
      vertex -16.2684 -0.945713 -2
      vertex -15.4478 -2.64983 -2
      vertex -16.2684 -0.945713 2
    endloop
  endfacet
  facet normal 0 -0 1
    outer loop
      vertex -15.4478 -2.64983 2
      vertex -15.4478 2.64983 2
      vertex -16.2684 -0.945713 2
    endloop
  endfacet
  facet normal 0 0 -1
    outer loop
      vertex -12.125 4.25 -2
      vertex -13.969 -3.82912 -2
      vertex -13.969 3.82912 -2
    endloop
  endfacet
  facet normal -1 -0 0
    outer loop
      vertex -10.7 0.504762 -2
      vertex -10.7 -10.7 -4
      vertex -10.7 -4.05489 -2
    endloop
  endfacet
  facet normal 0 1 0
    outer loop
      vertex -10.7 4.25 0.658823
      vertex -12.125 4.25 -2
      vertex -12.125 4.25 2
    endloop
  endfacet
  facet normal 0 -0 1
    outer loop
      vertex -10.7 -4.25 2
      vertex -10.7 -1.67604 2
      vertex -12.125 -4.25 2
    endloop
  endfacet
  facet normal 0 0 1
    outer loop
      vertex -13.969 -3.82912 2
      vertex -15.4478 2.64983 2
      vertex -15.4478 -2.64983 2
    endloop
  endfacet
  facet normal -0 0 1
    outer loop
      vertex -13.969 3.82912 2
      vertex -15.4478 2.64983 2
      vertex -12.125 4.25 2
    endloop
  endfacet
  facet normal 0 0 1
    outer loop
      vertex -10.7 4.25 2
      vertex -12.125 4.25 2
      vertex -10.7 3.65306 2
    endloop
  endfacet
  facet normal 0 0 -1
    outer loop
      vertex -16.2684 0.945713 -2
      vertex -13.969 -3.82912 -2
      vertex -16.2684 -0.945713 -2
    endloop
  endfacet
  facet normal -0.900981 -0.433858 0
    outer loop
      vertex -16.2684 -0.945713 2
      vertex -15.4478 -2.64983 -2
      vertex -15.4478 -2.64983 2
    endloop
  endfacet
  facet normal 0 0 -1
    outer loop
      vertex -10.7 -4.25 -2
      vertex -12.125 -4.25 -2
      vertex -10.7 -4.05489 -2
    endloop
  endfacet
  facet normal -1 0 0
    outer loop
      vertex -16.2684 -0.945713 2
      vertex -16.2684 0.945713 -2
      vertex -16.2684 -0.945713 -2
    endloop
  endfacet
  facet normal -0.900981 0.433858 0
    outer loop
      vertex -16.2684 0.945713 2
      vertex -15.4478 2.64983 2
      vertex -16.2684 0.945713 -2
    endloop
  endfacet
  facet normal 0 0 1
    outer loop
      vertex -16.2684 -0.945713 2
      vertex -15.4478 2.64983 2
      vertex -16.2684 0.945713 2
    endloop
  endfacet
  facet normal 0 0 -1
    outer loop
      vertex -10.7 0.504762 -2
      vertex -12.125 4.25 -2
      vertex -10.7 4.25 -2
    endloop
  endfacet
  facet normal 0 -0 -1
    outer loop
      vertex -15.4478 2.64983 -2
      vertex -13.969 -3.82912 -2
      vertex -16.2684 0.945713 -2
    endloop
  endfacet
  facet normal -0.623485 -0.781835 0
    outer loop
      vertex -15.4478 -2.64983 2
      vertex -13.969 -3.82912 -2
      vertex -13.969 -3.82912 2
    endloop
  endfacet
  facet normal -0.623485 -0.781835 0
    outer loop
      vertex -15.4478 -2.64983 -2
      vertex -13.969 -3.82912 -2
      vertex -15.4478 -2.64983 2
    endloop
  endfacet
  facet normal 0.900981 -0.433858 0
    outer loop
      vertex 16.2684 -0.945713 -2
      vertex 15.4478 -2.64983 2
      vertex 15.4478 -2.64983 -2
    endloop
  endfacet
  facet normal 0.623485 -0.781835 0
    outer loop
      vertex 13.969 -3.82912 2
      vertex 13.969 -3.82912 -2
      vertex 15.4478 -2.64983 2
    endloop
  endfacet
  facet normal 1 -0 0
    outer loop
      vertex 16.2684 -0.945713 2
      vertex 16.2684 -0.945713 -2
      vertex 16.2684 0.945713 2
    endloop
  endfacet
  facet normal 0.22252 -0.974928 0
    outer loop
      vertex 12.125 -4.25 -2
      vertex 13.969 -3.82912 -2
      vertex 12.125 -4.25 2
    endloop
  endfacet
  facet normal 0 0 1
    outer loop
      vertex 12.125 4.25 2
      vertex 15.4478 -2.64983 2
      vertex 13.969 3.82912 2
    endloop
  endfacet
  facet normal 0.22252 -0.974928 0
    outer loop
      vertex 12.125 -4.25 2
      vertex 13.969 -3.82912 -2
      vertex 13.969 -3.82912 2
    endloop
  endfacet
  facet normal -1 0 0
    outer loop
      vertex -10.7 4.25 2
      vertex -10.7 3.65306 2
      vertex -10.7 10.7 4
    endloop
  endfacet
  facet normal 0 0 -1
    outer loop
      vertex 16.2684 0.945713 -2
      vertex 13.969 3.82912 -2
      vertex 15.4478 2.64983 -2
    endloop
  endfacet
  facet normal -0 1 0
    outer loop
      vertex 10.7 4.25 -0.658823
      vertex 12.125 4.25 2
      vertex 12.125 4.25 -2
    endloop
  endfacet
  facet normal 0.22252 0.974928 0
    outer loop
      vertex 13.969 3.82912 2
      vertex 13.969 3.82912 -2
      vertex 12.125 4.25 2
    endloop
  endfacet
  facet normal 0 0 -1
    outer loop
      vertex 13.969 -3.82912 -2
      vertex 13.969 3.82912 -2
      vertex 15.4478 -2.64983 -2
    endloop
  endfacet
  facet normal -1 0 0
    outer loop
      vertex -10.7 -10.7 4
      vertex -10.7 -4.25 -0.658823
      vertex -10.7 -10.7 -4
    endloop
  endfacet
  facet normal 0.22252 0.974928 0
    outer loop
      vertex 12.125 4.25 2
      vertex 13.969 3.82912 -2
      vertex 12.125 4.25 -2
    endloop
  endfacet
  facet normal 0.623485 -0.781835 0
    outer loop
      vertex 15.4478 -2.64983 2
      vertex 13.969 -3.82912 -2
      vertex 15.4478 -2.64983 -2
    endloop
  endfacet
  facet normal -1 0 0
    outer loop
      vertex -10.7 -1.67604 2
      vertex -10.7 10.7 4
      vertex -10.7 3.65306 2
    endloop
  endfacet
  facet normal 0 -1 0
    outer loop
      vertex -10.7 -10.7 4
      vertex -4.25 -10.7 2
      vertex -3.65306 -10.7 2
    endloop
  endfacet
  facet normal -0 -1 -0
    outer loop
      vertex -4.25 -10.7 2
      vertex -10.7 -10.7 4
      vertex -4.25 -10.7 0.658823
    endloop
  endfacet
  facet normal 0.900981 0.433858 -0
    outer loop
      vertex 16.2684 0.945713 -2
      vertex 15.4478 2.64983 -2
      vertex 16.2684 0.945713 2
    endloop
  endfacet
  facet normal 0 0 1
    outer loop
      vertex 15.4478 2.64983 2
      vertex 15.4478 -2.64983 2
      vertex 16.2684 0.945713 2
    endloop
  endfacet
  facet normal 0 0 -1
    outer loop
      vertex 12.125 -4.25 -2
      vertex 13.969 3.82912 -2
      vertex 13.969 -3.82912 -2
    endloop
  endfacet
  facet normal 0 -1 0
    outer loop
      vertex 10.7 -10.7 4
      vertex 4.25 -10.7 2
      vertex 4.25 -10.7 1.58879
    endloop
  endfacet
  facet normal 0 -1 0
    outer loop
      vertex 10.7 -4.25 -2
      vertex 12.125 -4.25 -2
      vertex 10.7 -4.25 0.658823
    endloop
  endfacet
  facet normal 0 0 1
    outer loop
      vertex 10.7 1.67604 2
      vertex 12.125 4.25 2
      vertex 10.7 4.25 2
    endloop
  endfacet
  facet normal 0 0 1
    outer loop
      vertex 13.969 3.82912 2
      vertex 15.4478 -2.64983 2
      vertex 15.4478 2.64983 2
    endloop
  endfacet
  facet normal 0 -0 1
    outer loop
      vertex 13.969 -3.82912 2
      vertex 15.4478 -2.64983 2
      vertex 12.125 -4.25 2
    endloop
  endfacet
  facet normal -0 0 1
    outer loop
      vertex 10.7 -3.65306 2
      vertex 12.125 -4.25 2
      vertex 15.4478 -2.64983 2
    endloop
  endfacet
  facet normal 0 0 -1
    outer loop
      vertex 16.2684 -0.945713 -2
      vertex 13.969 3.82912 -2
      vertex 16.2684 0.945713 -2
    endloop
  endfacet
  facet normal 0.900981 0.433858 0
    outer loop
      vertex 16.2684 0.945713 2
      vertex 15.4478 2.64983 -2
      vertex 15.4478 2.64983 2
    endloop
  endfacet
  facet normal 0 0 -1
    outer loop
      vertex 10.7 4.25 -2
      vertex 12.125 4.25 -2
      vertex 10.7 4.05489 -2
    endloop
  endfacet
  facet normal 1 0 0
    outer loop
      vertex 16.2684 0.945713 2
      vertex 16.2684 -0.945713 -2
      vertex 16.2684 0.945713 -2
    endloop
  endfacet
  facet normal 0.900981 -0.433858 0
    outer loop
      vertex 16.2684 -0.945713 2
      vertex 15.4478 -2.64983 2
      vertex 16.2684 -0.945713 -2
    endloop
  endfacet
  facet normal 0 0 1
    outer loop
      vertex 16.2684 0.945713 2
      vertex 15.4478 -2.64983 2
      vertex 16.2684 -0.945713 2
    endloop
  endfacet
  facet normal 0 0 -1
    outer loop
      vertex 10.7 -4.25 -2
      vertex 10.7 -0.504762 -2
      vertex 12.125 -4.25 -2
    endloop
  endfacet
  facet normal 0 0 -1
    outer loop
      vertex 15.4478 -2.64983 -2
      vertex 13.969 3.82912 -2
      vertex 16.2684 -0.945713 -2
    endloop
  endfacet
  facet normal 0.623485 0.781835 0
    outer loop
      vertex 15.4478 2.64983 2
      vertex 13.969 3.82912 -2
      vertex 13.969 3.82912 2
    endloop
  endfacet
  facet normal 0.623485 0.781835 -0
    outer loop
      vertex 15.4478 2.64983 -2
      vertex 13.969 3.82912 -2
      vertex 15.4478 2.64983 2
    endloop
  endfacet
  facet normal 0 -0 1
    outer loop
      vertex -10.7 -1.67604 2
      vertex -10.7 3.65306 2
      vertex -15.4478 2.64983 2
    endloop
  endfacet
  facet normal 0 -1 0
    outer loop
      vertex 4.25 -10.7 -0.658823
      vertex 4.25 -10.7 -2
      vertex 10.7 -10.7 -4
    endloop
  endfacet
  facet normal 0 1 0
    outer loop
      vertex 10.7 10.7 4
      vertex -1.67604 10.7 2
      vertex -10.7 10.7 4
    endloop
  endfacet
  facet normal 0 0 -1
    outer loop
      vertex -4.25 10.7 -2
      vertex -4.25 12.125 -2
      vertex -4.05489 10.7 -2
    endloop
  endfacet
  facet normal 0 0 -1
    outer loop
      vertex 0.504762 10.7 -2
      vertex -4.05489 10.7 -2
      vertex -3.82912 13.969 -2
    endloop
  endfacet
  facet normal 0 1 0
    outer loop
      vertex -4.25 10.7 2
      vertex -4.25 10.7 1.58879
      vertex -10.7 10.7 4
    endloop
  endfacet
  facet normal 1 0 0
    outer loop
      vertex 10.7 4.25 -1.58879
      vertex 10.7 4.25 -2
      vertex 10.7 10.7 -4
    endloop
  endfacet
  facet normal -1 0 0
    outer loop
      vertex -4.25 -12.125 2
      vertex -4.25 -10.7 2
      vertex -4.25 -10.7 0.658823
    endloop
  endfacet
  facet normal 0 -1 0
    outer loop
      vertex -10.7 -10.7 -4
      vertex -4.25 -10.7 -2
      vertex -4.25 -10.7 -1.58879
    endloop
  endfacet
  facet normal 0 0 1
    outer loop
      vertex -10.7 -1.67604 2
      vertex -15.4478 2.64983 2
      vertex -12.125 -4.25 2
    endloop
  endfacet
  facet normal 0 -1 0
    outer loop
      vertex -10.7 -10.7 4
      vertex -3.65306 -10.7 2
      vertex 1.67604 -10.7 2
    endloop
  endfacet
  facet normal 0 0 1
    outer loop
      vertex 10.7 -4.25 2
      vertex 12.125 -4.25 2
      vertex 10.7 -3.65306 2
    endloop
  endfacet
  facet normal 0 0 -1
    outer loop
      vertex -13.969 -3.82912 -2
      vertex -10.7 -4.05489 -2
      vertex -12.125 -4.25 -2
    endloop
  endfacet
  facet normal 0 -1 0
    outer loop
      vertex -10.7 -10.7 -4
      vertex -0.504762 -10.7 -2
      vertex -4.25 -10.7 -2
    endloop
  endfacet
  facet normal -1 0 0
    outer loop
      vertex -4.25 10.7 -2
      vertex -4.25 10.7 -0.658823
      vertex -4.25 12.125 -2
    endloop
  endfacet
  facet normal 0 1 0
    outer loop
      vertex 10.7 10.7 4
      vertex 10.7 10.7 -4
      vertex 4.25 10.7 0.658823
    endloop
  endfacet
  facet normal 1 0 0
    outer loop
      vertex 10.7 4.25 -2
      vertex 10.7 4.05489 -2
      vertex 10.7 10.7 -4
    endloop
  endfacet
  facet normal -0 0 1
    outer loop
      vertex -4.25 -10.7 2
      vertex -4.25 -12.125 2
      vertex -3.65306 -10.7 2
    endloop
  endfacet
  facet normal 0 -1 0
    outer loop
      vertex 10.7 -10.7 4
      vertex 1.67604 -10.7 2
      vertex 4.25 -10.7 2
    endloop
  endfacet
  facet normal 0 0 1
    outer loop
      vertex 15.4478 -2.64983 2
      vertex 10.7 1.67604 2
      vertex 10.7 -3.65306 2
    endloop
  endfacet
  facet normal 1 0 0
    outer loop
      vertex 10.7 4.05489 -2
      vertex 10.7 -0.504762 -2
      vertex 10.7 10.7 -4
    endloop
  endfacet
  facet normal 1 0 0
    outer loop
      vertex 4.25 -10.7 2
      vertex 4.25 -12.125 2
      vertex 4.25 -10.7 1.58879
    endloop
  endfacet
  facet normal 1 0 0
    outer loop
      vertex 4.25 -10.7 1.58879
      vertex 4.25 -12.125 2
      vertex 4.25 -10.7 -0.658823
    endloop
  endfacet
  facet normal 1 0 0
    outer loop
      vertex 10.7 -10.7 -4
      vertex 10.7 -0.504762 -2
      vertex 10.7 -4.25 -2
    endloop
  endfacet
  facet normal 0 0 1
    outer loop
      vertex 12.125 4.25 2
      vertex 10.7 1.67604 2
      vertex 15.4478 -2.64983 2
    endloop
  endfacet
  facet normal 0 -1 0
    outer loop
      vertex -10.7 -10.7 4
      vertex 1.67604 -10.7 2
      vertex 10.7 -10.7 4
    endloop
  endfacet
  facet normal 1 0 -0
    outer loop
      vertex 4.25 -10.7 -2
      vertex 4.25 -10.7 -0.658823
      vertex 4.25 -12.125 -2
    endloop
  endfacet
  facet normal 1 0 0
    outer loop
      vertex 10.7 -10.7 -4
      vertex 10.7 -4.25 0.658823
      vertex 10.7 -10.7 4
    endloop
  endfacet
  facet normal 0 -0 -1
    outer loop
      vertex -12.125 4.25 -2
      vertex -10.7 0.504762 -2
      vertex -13.969 -3.82912 -2
    endloop
  endfacet
  facet normal 0 -1 0
    outer loop
      vertex -10.7 -10.7 -4
      vertex 10.7 -10.7 -4
      vertex -0.504762 -10.7 -2
    endloop
  endfacet
  facet normal 0 1 0
    outer loop
      vertex -10.7 4.25 2
      vertex -10.7 4.25 1.58879
      vertex -12.125 4.25 2
    endloop
  endfacet
  facet normal 0 -1 0
    outer loop
      vertex -0.504762 -10.7 -2
      vertex 10.7 -10.7 -4
      vertex 4.05489 -10.7 -2
    endloop
  endfacet
  facet normal 0 -1 0
    outer loop
      vertex 10.7 -10.7 -4
      vertex 4.25 -10.7 -2
      vertex 4.05489 -10.7 -2
    endloop
  endfacet
  facet normal 0 1 0
    outer loop
      vertex -12.125 4.25 2
      vertex -10.7 4.25 1.58879
      vertex -10.7 4.25 0.658823
    endloop
  endfacet
  facet normal 0 -1 0
    outer loop
      vertex 10.7 -10.7 -4
      vertex 10.7 -10.7 4
      vertex 4.25 -10.7 -0.658823
    endloop
  endfacet
  facet normal 0 -1 0
    outer loop
      vertex -12.125 -4.25 -2
      vertex -10.7 -4.25 -2
      vertex -10.7 -4.25 -1.58879
    endloop
  endfacet
  facet normal -1 0 0
    outer loop
      vertex -10.7 -1.67604 2
      vertex -10.7 -4.25 2
      vertex -10.7 -10.7 4
    endloop
  endfacet
  facet normal 0 -1 0
    outer loop
      vertex -12.125 -4.25 -2
      vertex -10.7 -4.25 -1.58879
      vertex -10.7 -4.25 -0.658823
    endloop
  endfacet
  facet normal 0 -1 0
    outer loop
      vertex -10.7 -10.7 4
      vertex -10.7 -10.7 -4
      vertex -4.25 -10.7 0.658823
    endloop
  endfacet
  facet normal -0 1 0
    outer loop
      vertex 10.7 4.25 2
      vertex 12.125 4.25 2
      vertex 10.7 4.25 -0.658823
    endloop
  endfacet
  facet normal 1 0 0
    outer loop
      vertex 4.25 12.125 2
      vertex 4.25 10.7 0.658823
      vertex 4.25 12.125 -2
    endloop
  endfacet
  facet normal 0 1 0
    outer loop
      vertex 10.7 10.7 -4
      vertex 4.25 10.7 -2
      vertex 4.25 10.7 -1.58879
    endloop
  endfacet
  facet normal 1 -0 0
    outer loop
      vertex 4.25 10.7 -1.58879
      vertex 4.25 12.125 -2
      vertex 4.25 10.7 0.658823
    endloop
  endfacet
  facet normal 0 1 0
    outer loop
      vertex -10.7 10.7 -4
      vertex -4.25 10.7 -2
      vertex -4.05489 10.7 -2
    endloop
  endfacet
  facet normal 0 0 -1
    outer loop
      vertex 3.82912 -13.969 -2
      vertex 4.05489 -10.7 -2
      vertex 4.25 -12.125 -2
    endloop
  endfacet
  facet normal 1 0 0
    outer loop
      vertex 10.7 -10.7 -4
      vertex 10.7 10.7 -4
      vertex 10.7 -0.504762 -2
    endloop
  endfacet
  facet normal 0 -1 0
    outer loop
      vertex -12.125 -4.25 -2
      vertex -10.7 -4.25 -0.658823
      vertex -12.125 -4.25 2
    endloop
  endfacet
  facet normal -1 0 0
    outer loop
      vertex -10.7 -10.7 -4
      vertex -10.7 -4.25 -0.658823
      vertex -10.7 -4.25 -1.58879
    endloop
  endfacet
  facet normal -1 0 0
    outer loop
      vertex -4.25 -12.125 2
      vertex -4.25 -10.7 0.658823
      vertex -4.25 -12.125 -2
    endloop
  endfacet
  facet normal 1 0 0
    outer loop
      vertex 10.7 1.67604 2
      vertex 10.7 4.25 2
      vertex 10.7 10.7 4
    endloop
  endfacet
  facet normal -1 -0 0
    outer loop
      vertex -4.25 -10.7 -1.58879
      vertex -4.25 -12.125 -2
      vertex -4.25 -10.7 0.658823
    endloop
  endfacet
  facet normal 1 0 -0
    outer loop
      vertex 10.7 -4.25 1.58879
      vertex 10.7 -4.25 2
      vertex 10.7 -10.7 4
    endloop
  endfacet
  facet normal -1 0 0
    outer loop
      vertex -10.7 -10.7 4
      vertex -10.7 -4.25 2
      vertex -10.7 -4.25 -0.658823
    endloop
  endfacet
  facet normal 0 0 -1
    outer loop
      vertex -13.969 -3.82912 -2
      vertex -10.7 0.504762 -2
      vertex -10.7 -4.05489 -2
    endloop
  endfacet
  facet normal -1 0 0
    outer loop
      vertex -4.25 12.125 -2
      vertex -4.25 10.7 -0.658823
      vertex -4.25 12.125 2
    endloop
  endfacet
  facet normal 0 1 0
    outer loop
      vertex 10.7 10.7 -4
      vertex 0.504762 10.7 -2
      vertex 4.25 10.7 -2
    endloop
  endfacet
  facet normal -1 0 0
    outer loop
      vertex -4.25 10.7 1.58879
      vertex -4.25 12.125 2
      vertex -4.25 10.7 -0.658823
    endloop
  endfacet
  facet normal 0 1 0
    outer loop
      vertex 10.7 10.7 -4
      vertex -10.7 10.7 -4
      vertex 0.504762 10.7 -2
    endloop
  endfacet
  facet normal 0 -1 0
    outer loop
      vertex 4.25 -10.7 1.58879
      vertex 4.25 -10.7 -0.658823
      vertex 10.7 -10.7 4
    endloop
  endfacet
  facet normal 0 1 0
    outer loop
      vertex 12.125 4.25 -2
      vertex 10.7 4.25 -2
      vertex 10.7 4.25 -1.58879
    endloop
  endfacet
  facet normal -0 -1 0
    outer loop
      vertex -4.25 -10.7 -1.58879
      vertex -4.25 -10.7 0.658823
      vertex -10.7 -10.7 -4
    endloop
  endfacet
  facet normal 0 1 0
    outer loop
      vertex 12.125 4.25 -2
      vertex 10.7 4.25 -1.58879
      vertex 10.7 4.25 -0.658823
    endloop
  endfacet
  facet normal -1 0 0
    outer loop
      vertex -10.7 -1.67604 2
      vertex -10.7 -10.7 4
      vertex -10.7 10.7 4
    endloop
  endfacet
  facet normal 0 1 -0
    outer loop
      vertex -10.7 4.25 -2
      vertex -12.125 4.25 -2
      vertex -10.7 4.25 0.658823
    endloop
  endfacet
  facet normal 0 -1 0
    outer loop
      vertex 10.7 -4.25 2
      vertex 10.7 -4.25 1.58879
      vertex 12.125 -4.25 2
    endloop
  endfacet
  facet normal 0 1 0
    outer loop
      vertex -4.25 10.7 1.58879
      vertex -4.25 10.7 -0.658823
      vertex -10.7 10.7 4
    endloop
  endfacet
  facet normal -0 0 1
    outer loop
      vertex -10.7 10.7 4
      vertex 10.7 -10.7 4
      vertex 10.7 10.7 4
    endloop
  endfacet
  facet normal 0 -1 0
    outer loop
      vertex 12.125 -4.25 2
      vertex 10.7 -4.25 1.58879
      vertex 10.7 -4.25 0.658823
    endloop
  endfacet
  facet normal 1 0 -0
    outer loop
      vertex 10.7 -4.25 2
      vertex 10.7 -3.65306 2
      vertex 10.7 -10.7 4
    endloop
  endfacet
  facet normal 0 -0 -1
    outer loop
      vertex -0.504762 -10.7 -2
      vertex 3.82912 -13.969 -2
      vertex -4.25 -12.125 -2
    endloop
  endfacet
  facet normal 0 1 0
    outer loop
      vertex -10.7 10.7 -4
      vertex -4.25 10.7 -0.658823
      vertex -4.25 10.7 -2
    endloop
  endfacet
  facet normal 0 -0 1
    outer loop
      vertex 4.25 10.7 2
      vertex 4.25 12.125 2
      vertex 3.65306 10.7 2
    endloop
  endfacet
  facet normal 0 0 -1
    outer loop
      vertex -10.7 -10.7 -4
      vertex 10.7 10.7 -4
      vertex 10.7 -10.7 -4
    endloop
  endfacet
  facet normal -0 0 -1
    outer loop
      vertex 13.969 3.82912 -2
      vertex 10.7 -0.504762 -2
      vertex 10.7 4.05489 -2
    endloop
  endfacet
  facet normal 0 0 1
    outer loop
      vertex -1.67604 10.7 2
      vertex 3.65306 10.7 2
      vertex 2.64983 15.4478 2
    endloop
  endfacet
  facet normal 0 1 0
    outer loop
      vertex -10.7 10.7 -4
      vertex -4.05489 10.7 -2
      vertex 0.504762 10.7 -2
    endloop
  endfacet
  facet normal 1 -0 0
    outer loop
      vertex 10.7 -10.7 4
      vertex 10.7 1.67604 2
      vertex 10.7 10.7 4
    endloop
  endfacet
  facet normal 0 0 -1
    outer loop
      vertex 3.82912 -13.969 -2
      vertex -0.504762 -10.7 -2
      vertex 4.05489 -10.7 -2
    endloop
  endfacet
  facet normal 0 -1 -0
    outer loop
      vertex 12.125 -4.25 2
      vertex 10.7 -4.25 0.658823
      vertex 12.125 -4.25 -2
    endloop
  endfacet
  facet normal -0 1 0
    outer loop
      vertex 4.25 10.7 -1.58879
      vertex 4.25 10.7 0.658823
      vertex 10.7 10.7 -4
    endloop
  endfacet
  facet normal 0 1 0
    outer loop
      vertex -10.7 10.7 -4
      vertex -10.7 10.7 4
      vertex -4.25 10.7 -0.658823
    endloop
  endfacet
  facet normal 0 0 -1
    outer loop
      vertex 0.504762 10.7 -2
      vertex -3.82912 13.969 -2
      vertex 4.25 12.125 -2
    endloop
  endfacet
  facet normal 0 0 1
    outer loop
      vertex -15.4478 2.64983 2
      vertex -10.7 3.65306 2
      vertex -12.125 4.25 2
    endloop
  endfacet
  facet normal -1 0 0
    outer loop
      vertex -10.7 4.25 1.58879
      vertex -10.7 4.25 2
      vertex -10.7 10.7 4
    endloop
  endfacet
  facet normal -1 0 0
    outer loop
      vertex -10.7 0.504762 -2
      vertex -10.7 4.25 -2
      vertex -10.7 10.7 -4
    endloop
  endfacet
  facet normal 1 0 0
    outer loop
      vertex 4.25 12.125 2
      vertex 4.25 10.7 2
      vertex 4.25 10.7 0.658823
    endloop
  endfacet
  facet normal -0 0 1
    outer loop
      vertex -4.25 12.125 2
      vertex -1.67604 10.7 2
      vertex 2.64983 15.4478 2
    endloop
  endfacet
  facet normal -1 0 0
    outer loop
      vertex -10.7 10.7 -4
      vertex -10.7 4.25 -2
      vertex -10.7 4.25 0.658823
    endloop
  endfacet
  facet normal 1 0 0
    outer loop
      vertex 10.7 10.7 -4
      vertex 10.7 4.25 -0.658823
      vertex 10.7 4.25 -1.58879
    endloop
  endfacet
  facet normal 0 -0 1
    outer loop
      vertex -2.64983 -15.4478 2
      vertex 1.67604 -10.7 2
      vertex -3.65306 -10.7 2
    endloop
  endfacet
  facet normal 0 0 1
    outer loop
      vertex -10.7 -10.7 4
      vertex 10.7 -10.7 4
      vertex -10.7 10.7 4
    endloop
  endfacet
  facet normal 0 0 -1
    outer loop
      vertex 10.7 -0.504762 -2
      vertex 13.969 3.82912 -2
      vertex 12.125 -4.25 -2
    endloop
  endfacet
endsolid OpenSCAD_Model
