solid OpenSCAD_Model
  facet normal 0 0 -1
    outer loop
      vertex 23.5355 -16.0355 0
      vertex 21.9134 -17.1194 0
      vertex 20 -17.5 0
    endloop
  endfacet
  facet normal -0 0 -1
    outer loop
      vertex 23.5355 -16.0355 0
      vertex 20 -17.5 0
      vertex 25 -12.5 0
    endloop
  endfacet
  facet normal 0 0 -1
    outer loop
      vertex 23.5355 -16.0355 0
      vertex 25 -12.5 0
      vertex 24.6194 -14.4134 0
    endloop
  endfacet
  facet normal 0 0 -1
    outer loop
      vertex 25 -12.5 0
      vertex 20 17.5 0
      vertex 25 12.5 0
    endloop
  endfacet
  facet normal 0 0 -1
    outer loop
      vertex 25 12.5 0
      vertex 23.5355 16.0355 0
      vertex 24.6194 14.4134 0
    endloop
  endfacet
  facet normal 0 0 -1
    outer loop
      vertex 20 17.5 0
      vertex 21.9134 17.1194 0
      vertex 23.5355 16.0355 0
    endloop
  endfacet
  facet normal 0 0 -1
    outer loop
      vertex 25 12.5 0
      vertex 20 17.5 0
      vertex 23.5355 16.0355 0
    endloop
  endfacet
  facet normal -0 0 -1
    outer loop
      vertex 25 -12.5 0
      vertex 20 -17.5 0
      vertex 20 17.5 0
    endloop
  endfacet
  facet normal -0 -0 -1
    outer loop
      vertex 20 17.5 0
      vertex 20 -17.5 0
      vertex -20 17.5 0
    endloop
  endfacet
  facet normal 0 0 -1
    outer loop
      vertex -20 17.5 0
      vertex -23.5355 16.0355 0
      vertex -21.9134 17.1194 0
    endloop
  endfacet
  facet normal 0 0 -1
    outer loop
      vertex -25 12.5 0
      vertex -24.6194 14.4134 0
      vertex -23.5355 16.0355 0
    endloop
  endfacet
  facet normal 0 0 -1
    outer loop
      vertex -20 17.5 0
      vertex -25 12.5 0
      vertex -23.5355 16.0355 0
    endloop
  endfacet
  facet normal 0 0 -1
    outer loop
      vertex -20 -17.5 0
      vertex -25 -12.5 0
      vertex -25 12.5 0
    endloop
  endfacet
  facet normal 0 0 -1
    outer loop
      vertex -20 -17.5 0
      vertex -23.5355 -16.0355 0
      vertex -25 -12.5 0
    endloop
  endfacet
  facet normal 0 0 -1
    outer loop
      vertex -25 -12.5 0
      vertex -23.5355 -16.0355 0
      vertex -24.6194 -14.4134 0
    endloop
  endfacet
  facet normal 0 0 -1
    outer loop
      vertex -20 -17.5 0
      vertex -21.9134 -17.1194 0
      vertex -23.5355 -16.0355 0
    endloop
  endfacet
  facet normal 0 -0 -1
    outer loop
      vertex -20 17.5 0
      vertex -20 -17.5 0
      vertex -25 12.5 0
    endloop
  endfacet
  facet normal 0 0 -1
    outer loop
      vertex -20 17.5 0
      vertex 20 -17.5 0
      vertex -20 -17.5 0
    endloop
  endfacet
  facet normal 0.555587 -0.831458 0
    outer loop
      vertex 23.5355 -16.0355 0
      vertex 21.9134 -17.1194 20
      vertex 21.9134 -17.1194 0
    endloop
  endfacet
  facet normal 0.555587 -0.831458 0
    outer loop
      vertex 23.5355 -16.0355 0
      vertex 23.5355 -16.0355 20
      vertex 21.9134 -17.1194 20
    endloop
  endfacet
  facet normal 0.831458 -0.555587 0
    outer loop
      vertex 24.6194 -14.4134 0
      vertex 23.5355 -16.0355 20
      vertex 23.5355 -16.0355 0
    endloop
  endfacet
  facet normal 0.831458 -0.555587 0
    outer loop
      vertex 24.6194 -14.4134 0
      vertex 24.6194 -14.4134 20
      vertex 23.5355 -16.0355 20
    endloop
  endfacet
  facet normal 0.980785 -0.195091 0
    outer loop
      vertex 25 -12.5 0
      vertex 24.6194 -14.4134 20
      vertex 24.6194 -14.4134 0
    endloop
  endfacet
  facet normal 0.980785 -0.195091 0
    outer loop
      vertex 25 -12.5 0
      vertex 25 -12.5 20
      vertex 24.6194 -14.4134 20
    endloop
  endfacet
  facet normal 1 0 0
    outer loop
      vertex 25 12.5 0
      vertex 25 -12.5 20
      vertex 25 -12.5 0
    endloop
  endfacet
  facet normal 1 0 -0
    outer loop
      vertex 25 12.5 0
      vertex 25 12.5 20
      vertex 25 -12.5 20
    endloop
  endfacet
  facet normal 0.980785 0.195091 0
    outer loop
      vertex 24.6194 14.4134 0
      vertex 25 12.5 20
      vertex 25 12.5 0
    endloop
  endfacet
  facet normal 0.980785 0.195091 -0
    outer loop
      vertex 24.6194 14.4134 0
      vertex 24.6194 14.4134 20
      vertex 25 12.5 20
    endloop
  endfacet
  facet normal 0.831458 0.555587 0
    outer loop
      vertex 23.5355 16.0355 0
      vertex 24.6194 14.4134 20
      vertex 24.6194 14.4134 0
    endloop
  endfacet
  facet normal 0.831458 0.555587 -0
    outer loop
      vertex 23.5355 16.0355 0
      vertex 23.5355 16.0355 20
      vertex 24.6194 14.4134 20
    endloop
  endfacet
  facet normal 0.555587 0.831458 0
    outer loop
      vertex 21.9134 17.1194 0
      vertex 23.5355 16.0355 20
      vertex 23.5355 16.0355 0
    endloop
  endfacet
  facet normal 0.555587 0.831458 -0
    outer loop
      vertex 21.9134 17.1194 0
      vertex 21.9134 17.1194 20
      vertex 23.5355 16.0355 20
    endloop
  endfacet
  facet normal 0.195091 0.980785 0
    outer loop
      vertex 20 17.5 0
      vertex 21.9134 17.1194 20
      vertex 21.9134 17.1194 0
    endloop
  endfacet
  facet normal 0.195091 0.980785 -0
    outer loop
      vertex 20 17.5 0
      vertex 20 17.5 20
      vertex 21.9134 17.1194 20
    endloop
  endfacet
  facet normal 0 1 0
    outer loop
      vertex -20 17.5 0
      vertex 20 17.5 20
      vertex 20 17.5 0
    endloop
  endfacet
  facet normal 0 1 0
    outer loop
      vertex -20 17.5 0
      vertex -20 17.5 20
      vertex 20 17.5 20
    endloop
  endfacet
  facet normal -0.195091 0.980785 0
    outer loop
      vertex -21.9134 17.1194 0
      vertex -20 17.5 20
      vertex -20 17.5 0
    endloop
  endfacet
  facet normal -0.195091 0.980785 0
    outer loop
      vertex -21.9134 17.1194 0
      vertex -21.9134 17.1194 20
      vertex -20 17.5 20
    endloop
  endfacet
  facet normal -0.555587 0.831458 0
    outer loop
      vertex -23.5355 16.0355 0
      vertex -21.9134 17.1194 20
      vertex -21.9134 17.1194 0
    endloop
  endfacet
  facet normal -0.555587 0.831458 0
    outer loop
      vertex -23.5355 16.0355 0
      vertex -23.5355 16.0355 20
      vertex -21.9134 17.1194 20
    endloop
  endfacet
  facet normal -0.831458 0.555587 0
    outer loop
      vertex -24.6194 14.4134 0
      vertex -23.5355 16.0355 20
      vertex -23.5355 16.0355 0
    endloop
  endfacet
  facet normal -0.831458 0.555587 0
    outer loop
      vertex -24.6194 14.4134 0
      vertex -24.6194 14.4134 20
      vertex -23.5355 16.0355 20
    endloop
  endfacet
  facet normal -0.980785 0.195091 0
    outer loop
      vertex -25 12.5 0
      vertex -24.6194 14.4134 20
      vertex -24.6194 14.4134 0
    endloop
  endfacet
  facet normal -0.980785 0.195091 0
    outer loop
      vertex -25 12.5 0
      vertex -25 12.5 20
      vertex -24.6194 14.4134 20
    endloop
  endfacet
  facet normal -1 0 0
    outer loop
      vertex -25 -12.5 0
      vertex -25 12.5 20
      vertex -25 12.5 0
    endloop
  endfacet
  facet normal -1 0 0
    outer loop
      vertex -25 -12.5 0
      vertex -25 -12.5 20
      vertex -25 12.5 20
    endloop
  endfacet
  facet normal -0.980785 -0.195091 0
    outer loop
      vertex -24.6194 -14.4134 0
      vertex -25 -12.5 20
      vertex -25 -12.5 0
    endloop
  endfacet
  facet normal -0.980785 -0.195091 0
    outer loop
      vertex -24.6194 -14.4134 0
      vertex -24.6194 -14.4134 20
      vertex -25 -12.5 20
    endloop
  endfacet
  facet normal -0.831458 -0.555587 0
    outer loop
      vertex -23.5355 -16.0355 0
      vertex -24.6194 -14.4134 20
      vertex -24.6194 -14.4134 0
    endloop
  endfacet
  facet normal -0.831458 -0.555587 0
    outer loop
      vertex -23.5355 -16.0355 0
      vertex -23.5355 -16.0355 20
      vertex -24.6194 -14.4134 20
    endloop
  endfacet
  facet normal -0.555587 -0.831458 0
    outer loop
      vertex -21.9134 -17.1194 0
      vertex -23.5355 -16.0355 20
      vertex -23.5355 -16.0355 0
    endloop
  endfacet
  facet normal -0.555587 -0.831458 0
    outer loop
      vertex -21.9134 -17.1194 0
      vertex -21.9134 -17.1194 20
      vertex -23.5355 -16.0355 20
    endloop
  endfacet
  facet normal -0.195091 -0.980785 0
    outer loop
      vertex -20 -17.5 0
      vertex -21.9134 -17.1194 20
      vertex -21.9134 -17.1194 0
    endloop
  endfacet
  facet normal -0.195091 -0.980785 0
    outer loop
      vertex -20 -17.5 0
      vertex -20 -17.5 20
      vertex -21.9134 -17.1194 20
    endloop
  endfacet
  facet normal 0 -1 0
    outer loop
      vertex 20 -17.5 0
      vertex -20 -17.5 20
      vertex -20 -17.5 0
    endloop
  endfacet
  facet normal 0 -1 0
    outer loop
      vertex 20 -17.5 0
      vertex 20 -17.5 20
      vertex -20 -17.5 20
    endloop
  endfacet
  facet normal 0.195091 -0.980785 0
    outer loop
      vertex 21.9134 -17.1194 0
      vertex 20 -17.5 20
      vertex 20 -17.5 0
    endloop
  endfacet
  facet normal 0.195091 -0.980785 0
    outer loop
      vertex 21.9134 -17.1194 0
      vertex 21.9134 -17.1194 20
      vertex 20 -17.5 20
    endloop
  endfacet
  facet normal 0 0 1
    outer loop
      vertex 20 -17.5 20
      vertex 21.9134 -17.1194 20
      vertex 23.5355 -16.0355 20
    endloop
  endfacet
  facet normal 0 0 1
    outer loop
      vertex 25 -12.5 20
      vertex 20 -17.5 20
      vertex 23.5355 -16.0355 20
    endloop
  endfacet
  facet normal 0 -0 1
    outer loop
      vertex 24.6194 -14.4134 20
      vertex 25 -12.5 20
      vertex 23.5355 -16.0355 20
    endloop
  endfacet
  facet normal 0 0 1
    outer loop
      vertex 25 12.5 20
      vertex 20 17.5 20
      vertex 25 -12.5 20
    endloop
  endfacet
  facet normal 0 0 1
    outer loop
      vertex 24.6194 14.4134 20
      vertex 23.5355 16.0355 20
      vertex 25 12.5 20
    endloop
  endfacet
  facet normal 0 0 1
    outer loop
      vertex 23.5355 16.0355 20
      vertex 21.9134 17.1194 20
      vertex 20 17.5 20
    endloop
  endfacet
  facet normal 0 0 1
    outer loop
      vertex 23.5355 16.0355 20
      vertex 20 17.5 20
      vertex 25 12.5 20
    endloop
  endfacet
  facet normal 0 0 1
    outer loop
      vertex 20 17.5 20
      vertex 20 -17.5 20
      vertex 25 -12.5 20
    endloop
  endfacet
  facet normal -0 0 1
    outer loop
      vertex -20 17.5 20
      vertex 20 -17.5 20
      vertex 20 17.5 20
    endloop
  endfacet
  facet normal -0 0 1
    outer loop
      vertex -21.9134 17.1194 20
      vertex -23.5355 16.0355 20
      vertex -20 17.5 20
    endloop
  endfacet
  facet normal 0 0 1
    outer loop
      vertex -23.5355 16.0355 20
      vertex -24.6194 14.4134 20
      vertex -25 12.5 20
    endloop
  endfacet
  facet normal -0 0 1
    outer loop
      vertex -23.5355 16.0355 20
      vertex -25 12.5 20
      vertex -20 17.5 20
    endloop
  endfacet
  facet normal 0 0 1
    outer loop
      vertex -25 12.5 20
      vertex -25 -12.5 20
      vertex -20 -17.5 20
    endloop
  endfacet
  facet normal 0 0 1
    outer loop
      vertex -25 -12.5 20
      vertex -23.5355 -16.0355 20
      vertex -20 -17.5 20
    endloop
  endfacet
  facet normal -0 -0 1
    outer loop
      vertex -24.6194 -14.4134 20
      vertex -23.5355 -16.0355 20
      vertex -25 -12.5 20
    endloop
  endfacet
  facet normal 0 0 1
    outer loop
      vertex -23.5355 -16.0355 20
      vertex -21.9134 -17.1194 20
      vertex -20 -17.5 20
    endloop
  endfacet
  facet normal -0 0 1
    outer loop
      vertex -25 12.5 20
      vertex -20 -17.5 20
      vertex -20 17.5 20
    endloop
  endfacet
  facet normal 0 0 1
    outer loop
      vertex -20 -17.5 20
      vertex 20 -17.5 20
      vertex -20 17.5 20
    endloop
  endfacet
endsolid OpenSCAD_Model
