solid OpenSCAD_Model
  facet normal 1 -0 0
    outer loop
      vertex -9.5 -1 1.5
      vertex -9.5 1 -1.5
      vertex -9.5 1 1.5
    endloop
  endfacet
  facet normal 1 0 0
    outer loop
      vertex -9.5 1 -1.5
      vertex -9.5 -1 1.5
      vertex -9.5 -1 -1.5
    endloop
  endfacet
  facet normal -0 0 1
    outer loop
      vertex -10.5 1 1.5
      vertex -9.5 -1 1.5
      vertex -9.5 1 1.5
    endloop
  endfacet
  facet normal 0 0 1
    outer loop
      vertex -9.5 -1 1.5
      vertex -10.5 1 1.5
      vertex -10.5 -1 1.5
    endloop
  endfacet
  facet normal 0 0 -1
    outer loop
      vertex -10.5 -1 -1.5
      vertex -9.5 1 -1.5
      vertex -9.5 -1 -1.5
    endloop
  endfacet
  facet normal -0 0 -1
    outer loop
      vertex -9.5 1 -1.5
      vertex -10.5 -1 -1.5
      vertex -10.5 1 -1.5
    endloop
  endfacet
  facet normal -1 0 0
    outer loop
      vertex -10.5 -1 -1.5
      vertex -10.5 1 1.5
      vertex -10.5 1 -1.5
    endloop
  endfacet
  facet normal -1 -0 0
    outer loop
      vertex -10.5 1 1.5
      vertex -10.5 -1 -1.5
      vertex -10.5 -1 1.5
    endloop
  endfacet
  facet normal 0 1 -0
    outer loop
      vertex -9.5 1 -1.5
      vertex -10.5 1 1.5
      vertex -9.5 1 1.5
    endloop
  endfacet
  facet normal 0 1 0
    outer loop
      vertex -10.5 1 1.5
      vertex -9.5 1 -1.5
      vertex -10.5 1 -1.5
    endloop
  endfacet
  facet normal 0 -1 0
    outer loop
      vertex -10.5 -1 -1.5
      vertex -9.5 -1 1.5
      vertex -10.5 -1 1.5
    endloop
  endfacet
  facet normal 0 -1 -0
    outer loop
      vertex -9.5 -1 1.5
      vertex -10.5 -1 -1.5
      vertex -9.5 -1 -1.5
    endloop
  endfacet
  facet normal 1 -0 0
    outer loop
      vertex 0.5 -1 1.5
      vertex 0.5 1 -1.5
      vertex 0.5 1 1.5
    endloop
  endfacet
  facet normal 1 0 0
    outer loop
      vertex 0.5 1 -1.5
      vertex 0.5 -1 1.5
      vertex 0.5 -1 -1.5
    endloop
  endfacet
  facet normal -0 0 1
    outer loop
      vertex -0.5 1 1.5
      vertex 0.5 -1 1.5
      vertex 0.5 1 1.5
    endloop
  endfacet
  facet normal 0 0 1
    outer loop
      vertex 0.5 -1 1.5
      vertex -0.5 1 1.5
      vertex -0.5 -1 1.5
    endloop
  endfacet
  facet normal 0 0 -1
    outer loop
      vertex -0.5 -1 -1.5
      vertex 0.5 1 -1.5
      vertex 0.5 -1 -1.5
    endloop
  endfacet
  facet normal -0 0 -1
    outer loop
      vertex 0.5 1 -1.5
      vertex -0.5 -1 -1.5
      vertex -0.5 1 -1.5
    endloop
  endfacet
  facet normal -1 0 0
    outer loop
      vertex -0.5 -1 -1.5
      vertex -0.5 1 1.5
      vertex -0.5 1 -1.5
    endloop
  endfacet
  facet normal -1 -0 0
    outer loop
      vertex -0.5 1 1.5
      vertex -0.5 -1 -1.5
      vertex -0.5 -1 1.5
    endloop
  endfacet
  facet normal 0 1 -0
    outer loop
      vertex 0.5 1 -1.5
      vertex -0.5 1 1.5
      vertex 0.5 1 1.5
    endloop
  endfacet
  facet normal 0 1 0
    outer loop
      vertex -0.5 1 1.5
      vertex 0.5 1 -1.5
      vertex -0.5 1 -1.5
    endloop
  endfacet
  facet normal 0 -1 0
    outer loop
      vertex -0.5 -1 -1.5
      vertex 0.5 -1 1.5
      vertex -0.5 -1 1.5
    endloop
  endfacet
  facet normal 0 -1 -0
    outer loop
      vertex 0.5 -1 1.5
      vertex -0.5 -1 -1.5
      vertex 0.5 -1 -1.5
    endloop
  endfacet
  facet normal 1 -0 0
    outer loop
      vertex 10.5 -1 1.5
      vertex 10.5 1 -1.5
      vertex 10.5 1 1.5
    endloop
  endfacet
  facet normal 1 0 0
    outer loop
      vertex 10.5 1 -1.5
      vertex 10.5 -1 1.5
      vertex 10.5 -1 -1.5
    endloop
  endfacet
  facet normal -0 0 1
    outer loop
      vertex 9.5 1 1.5
      vertex 10.5 -1 1.5
      vertex 10.5 1 1.5
    endloop
  endfacet
  facet normal 0 0 1
    outer loop
      vertex 10.5 -1 1.5
      vertex 9.5 1 1.5
      vertex 9.5 -1 1.5
    endloop
  endfacet
  facet normal 0 0 -1
    outer loop
      vertex 9.5 -1 -1.5
      vertex 10.5 1 -1.5
      vertex 10.5 -1 -1.5
    endloop
  endfacet
  facet normal -0 0 -1
    outer loop
      vertex 10.5 1 -1.5
      vertex 9.5 -1 -1.5
      vertex 9.5 1 -1.5
    endloop
  endfacet
  facet normal -1 0 0
    outer loop
      vertex 9.5 -1 -1.5
      vertex 9.5 1 1.5
      vertex 9.5 1 -1.5
    endloop
  endfacet
  facet normal -1 -0 0
    outer loop
      vertex 9.5 1 1.5
      vertex 9.5 -1 -1.5
      vertex 9.5 -1 1.5
    endloop
  endfacet
  facet normal 0 1 -0
    outer loop
      vertex 10.5 1 -1.5
      vertex 9.5 1 1.5
      vertex 10.5 1 1.5
    endloop
  endfacet
  facet normal 0 1 0
    outer loop
      vertex 9.5 1 1.5
      vertex 10.5 1 -1.5
      vertex 9.5 1 -1.5
    endloop
  endfacet
  facet normal 0 -1 0
    outer loop
      vertex 9.5 -1 -1.5
      vertex 10.5 -1 1.5
      vertex 9.5 -1 1.5
    endloop
  endfacet
  facet normal 0 -1 -0
    outer loop
      vertex 10.5 -1 1.5
      vertex 9.5 -1 -1.5
      vertex 10.5 -1 -1.5
    endloop
  endfacet
endsolid OpenSCAD_Model
